<svg width="791" height="191" viewBox="0 0 791 191" fill="none" xmlns="http://www.w3.org/2000/svg">
<path d="M111.761 78.0432C106.124 79.1695 101.614 84.2376 92.0312 100.568L54.0741 165.515H68.5429C88.4609 165.515 98.42 159.884 106.688 140.362L102.366 168.33H21.3784C27.2035 165.89 34.7197 157.256 44.8667 139.799L79.4414 80.108H64.4089C44.4908 80.108 34.5318 85.7392 26.2639 105.261L30.5858 77.2924H111.761V78.0432ZM213.419 149.935L214.358 150.686C208.721 161.197 193.501 169.644 173.583 169.644C143.518 169.644 123.036 151.061 123.036 124.219C123.036 93.9984 149.155 76.1662 177.153 76.1662C217.741 76.1662 221.123 116.148 197.071 116.148H147.464C147.839 142.802 163.06 160.447 185.609 160.447C194.628 160.447 207.594 157.631 213.419 149.935ZM170.952 79.1695C158.174 79.1695 148.215 91.9336 147.464 112.957L185.233 112.581C198.01 112.394 192.749 79.1695 170.952 79.1695ZM257.389 150.123C257.389 160.259 258.704 165.515 268.099 167.58V168.33H231.834L233.525 156.693V45.0068C233.525 37.4985 228.639 38.4371 216.613 42.0035V40.8772L258.328 21.3557L257.389 29.8025V150.123ZM328.417 76.1662C358.67 76.1662 378.401 94.7492 378.401 122.905C378.401 150.498 358.67 169.644 328.417 169.644C298.164 169.644 278.434 151.061 278.434 122.905C278.434 95.3123 298.164 76.1662 328.417 76.1662ZM335.746 166.453C349.275 166.453 355.476 155.191 355.476 137.359C355.476 112.206 343.826 79.3572 321.089 79.3572C307.56 79.3572 301.359 90.4319 301.359 108.639C301.359 133.605 313.197 166.453 335.746 166.453ZM443.792 169.644C413.915 169.644 393.433 151.061 393.433 124.031C393.433 93.9983 418.612 76.1662 447.926 76.1662C464.462 76.1662 475.736 81.9851 481.561 88.7426L462.77 116.899H462.395C470.85 91.5582 456.757 79.1695 443.04 78.9818C429.699 78.9818 417.861 90.2442 417.861 113.332C417.861 139.799 433.269 160.447 456.194 160.447C463.898 160.447 474.609 158.006 480.434 150.686L481.373 151.437C475.736 161.573 463.146 169.644 443.792 169.644ZM527.034 150.123C527.034 160.259 528.35 165.515 537.745 167.58V168.33H501.479L503.17 156.693V45.0068C503.17 37.4985 498.285 38.4371 486.259 42.0035V40.8772L527.974 21.3557L527.034 29.8025V150.123ZM645.603 162.324C648.234 164.013 653.12 165.327 656.126 165.702V166.453L621.739 169.269V152.938C612.908 159.884 598.063 169.644 580.776 169.644C569.501 169.644 553.529 163.825 553.529 135.482V95.1246C553.529 84.9884 551.838 81.422 543.382 77.6678V77.2924H578.521L577.393 90.2442V135.106C577.393 156.129 584.91 160.822 593.177 160.822C605.203 160.822 614.223 154.44 621.739 148.433V95.1246C621.739 84.9884 620.048 81.422 611.592 77.6678V77.2924H646.731L645.603 90.2442V162.324ZM721.33 76.1662C750.831 76.1662 769.622 94.1861 769.622 119.527C769.622 145.43 749.516 169.644 707.8 169.644C697.653 169.644 681.306 168.143 664.958 163.262V163.075C671.722 161.385 673.977 158.382 673.977 146.181V45.0068C673.977 37.4985 669.092 38.4371 657.066 42.0035V40.8772L698.781 21.3557L697.841 29.8025V81.2343C703.854 78.231 711.746 76.1662 721.33 76.1662ZM718.699 165.89C737.302 165.89 745.382 153.314 745.382 131.352C745.382 105.636 733.732 80.6711 711.934 80.6711C706.485 80.6711 701.787 82.1728 697.841 84.613V158.194C703.479 163.075 710.243 165.89 718.699 165.89Z" fill="white"/>
</svg>
