<svg width="84" height="20" viewBox="0 0 84 20" fill="none" xmlns="http://www.w3.org/2000/svg">
<path d="M16.9866 13.1025C16.942 13.1918 16.808 13.2365 16.7188 13.1695C15.7589 12.6338 14.8438 12.3659 13.8839 12.3659C11.4286 12.3659 8.99554 14.0624 5.89286 16.2275L4.53125 17.2097C3.61607 17.8793 3.08036 18.2588 2.96875 18.3034C2.92411 18.3258 2.90179 18.3258 2.85714 18.3258C2.76786 18.3258 2.70089 18.2811 2.67857 18.1918C2.65625 18.1025 2.67857 18.0133 2.76786 17.9686C3.23661 17.6338 5.51339 14.4195 7.43304 9.44183C8.57143 6.2945 8.75 3.12486 8.25893 2.00879C8.21429 1.87486 8.25893 1.78557 8.34822 1.74093C8.37054 1.71861 8.41518 1.71861 8.4375 1.71861C8.52679 1.71861 8.59375 1.76325 8.61607 1.85254C9.35268 3.52665 9.64286 6.98647 8.77232 10.4016C10.8929 8.01325 13.4375 4.6204 13.6384 1.9195C13.6384 1.78558 13.75 1.69629 13.8616 1.69629C13.9063 1.69629 13.9509 1.71861 13.9955 1.74093C14.0179 1.76325 14.0625 1.83022 14.0402 1.94182C13.8839 3.50432 13.1027 6.85254 9.48661 11.7856C10.3795 11.4731 11.25 11.3391 12.0982 11.3391C12.6786 11.3391 13.2813 11.4284 13.8839 11.5847C13.9063 11.5847 13.9063 11.5847 13.9286 11.5847C14.8884 11.8079 15.8705 12.2097 16.8973 12.8124C16.942 12.8347 16.9866 12.8793 17.0089 12.9463C17.0089 13.0133 17.0089 13.0579 16.9866 13.1025ZM0 19.9552H19.6875V0.133789H0V19.9552Z" fill="white"/>
<path d="M29.933 20C28.3705 20 26.6295 19.5982 24.9777 18.6161L25.7143 16.9866C27.0759 17.6786 28.3929 18.1473 29.8661 18.1473C32.2768 18.1473 33.5491 16.9196 33.5491 14.8438C33.5491 10.2009 24.8438 10.7812 24.8438 4.93304C24.8438 2.00893 26.875 0 30.3348 0C31.9643 0 33.683 0.46875 35 1.25L34.2634 2.76786C33.1696 2.23214 31.7188 1.76339 30.4018 1.76339C28.1027 1.76339 26.942 2.99107 26.942 4.70982C26.942 9.15179 35.692 8.54911 35.692 14.5982C35.6696 17.9911 33.4821 20 29.933 20Z" fill="white"/>
<path d="M48.9728 19.8436L47.7451 15.5133H40.5799L39.4192 19.8436H37.2764L42.8121 0.133789H45.7139L51.2049 19.8436H48.9728ZM44.1737 2.32129H44.1514L41.0264 13.7275H47.3657L44.1737 2.32129Z" fill="white"/>
<path d="M63.9957 19.8436L56.0492 2.94629V19.8436H54.085V0.133789H56.9644L64.6876 16.5624V0.133789H66.6519V19.8436H63.9957Z" fill="white"/>
<path d="M81.1828 19.8436L79.9551 15.5133H72.7899L71.6292 19.8436H69.4863L75.022 0.133789H77.9238L83.4149 19.8436H81.1828ZM76.3836 2.32129H76.3613L73.2363 13.7275H79.5756L76.3836 2.32129Z" fill="white"/>
</svg>
