<svg width="182" height="155" viewBox="0 0 182 155" fill="none" xmlns="http://www.w3.org/2000/svg">
<g filter="url(#filter0_i_103_612)">
<path d="M181.231 50.0639C181.231 106.588 97.2578 152.34 93.6817 154.229C92.7392 154.735 91.6856 155 90.6154 155C89.5451 155 88.4916 154.735 87.549 154.229C83.973 152.34 0 106.588 0 50.0639C0.0149899 36.7907 5.30472 24.0655 14.7087 14.6799C24.1127 5.29434 36.8629 0.0149605 50.1621 0C66.8693 0 81.4972 7.17044 90.6154 19.2907C99.7336 7.17044 114.361 0 131.069 0C144.368 0.0149605 157.118 5.29434 166.522 14.6799C175.926 24.0655 181.216 36.7907 181.231 50.0639Z" fill="#ABEDD8"/>
<path d="M156.59 78.585C156.59 119.746 95.4515 153.063 92.8478 154.439C92.1616 154.807 91.3946 155 90.6154 155C89.8362 155 89.069 154.807 88.3828 154.439C85.7791 153.063 24.6409 119.746 24.6409 78.585C24.6519 68.9194 28.5032 59.6528 35.3499 52.8182C42.1967 45.9836 51.4797 42.1391 61.1625 42.1282C73.3265 42.1282 83.9766 47.3498 90.6153 56.1759C97.254 47.3498 107.904 42.1282 120.068 42.1282C129.751 42.1391 139.034 45.9836 145.881 52.8182C152.727 59.6528 156.579 68.9194 156.59 78.585Z" fill="#4F796C"/>
</g>
<defs>
<filter id="filter0_i_103_612" x="0" y="0" width="181.231" height="171" filterUnits="userSpaceOnUse" color-interpolation-filters="sRGB">
<feFlood flood-opacity="0" result="BackgroundImageFix"/>
<feBlend mode="normal" in="SourceGraphic" in2="BackgroundImageFix" result="shape"/>
<feColorMatrix in="SourceAlpha" type="matrix" values="0 0 0 0 0 0 0 0 0 0 0 0 0 0 0 0 0 0 127 0" result="hardAlpha"/>
<feOffset dy="16"/>
<feGaussianBlur stdDeviation="12"/>
<feComposite in2="hardAlpha" operator="arithmetic" k2="-1" k3="1"/>
<feColorMatrix type="matrix" values="0 0 0 0 0 0 0 0 0 0 0 0 0 0 0 0 0 0 0.25 0"/>
<feBlend mode="normal" in2="shape" result="effect1_innerShadow_103_612"/>
</filter>
</defs>
</svg>
